<svg xmlns="http://www.w3.org/2000/svg" width="23.931" height="27.606" viewBox="0 0 23.931 27.606">
    <path data-name="Icon ionic-ios-refresh" d="M25.575 16.917a.852.852 0 0 0-.851.777A9.272 9.272 0 1 1 15.243 7.7a.224.224 0 0 1 .234.228v2.873a.916.916 0 0 0 1.4.771l5.494-3.844a.913.913 0 0 0 0-1.548l-5.483-3.787a.916.916 0 0 0-1.4.771v2.61A.224.224 0 0 1 15.26 6a10.919 10.919 0 1 0 11.166 11.836.849.849 0 0 0-.851-.92z" transform="translate(-3.5 -1.231)" style="fill:#fff;stroke:#fff;stroke-width:2px"/>
</svg>
