<svg xmlns="http://www.w3.org/2000/svg" width="250.64" height="161.115" viewBox="0 0 250.64 161.115">
  <g id="Icon_ionic-ios-eye" data-name="Icon ionic-ios-eye" transform="translate(-2.252 -7.875)">
    <path id="Path_11" data-name="Path 11" d="M127.438,7.875c-44.978,0-80.445,28.307-122.85,74.572a8.845,8.845,0,0,0-.056,11.916c36.307,40.111,68.306,74.627,122.906,74.627,53.929,0,94.375-43.467,123.13-74.963a8.776,8.776,0,0,0,.28-11.58C221.533,46.923,180.975,7.875,127.438,7.875Zm2.461,130.85a50.347,50.347,0,1,1,47.943-47.943A50.369,50.369,0,0,1,129.9,138.725Z" transform="translate(0 0)"/>
    <path id="Path_12" data-name="Path 12" d="M49.295,23.01a26.285,26.285,0,0,1,1.734-9.454c-.559,0-1.119-.056-1.734-.056A35.8,35.8,0,1,0,85.1,49.3c0-.727-.056-1.455-.056-2.182A24.807,24.807,0,0,1,74.861,49.3C60.763,49.3,49.295,37.5,49.295,23.01Z" transform="translate(78.254 39.129)"/>
  </g>
</svg>
