<svg xmlns="http://www.w3.org/2000/svg" width="34.743" height="20.267" viewBox="0 0 34.743 20.267">
    <g data-name="Icon ionic-ios-menu">
        <path data-name="Path 2" d="M37.8 13.02H5.948A1.452 1.452 0 0 1 4.5 11.573a1.452 1.452 0 0 1 1.448-1.448H37.8a1.452 1.452 0 0 1 1.448 1.448A1.452 1.452 0 0 1 37.8 13.02z" transform="translate(-4.5 -10.125)" style="fill:#fff"/>
        <path data-name="Path 3" d="M37.8 19.77H5.948A1.452 1.452 0 0 1 4.5 18.323a1.452 1.452 0 0 1 1.448-1.448H37.8a1.452 1.452 0 0 1 1.448 1.448A1.452 1.452 0 0 1 37.8 19.77z" transform="translate(-4.5 -8.189)" style="fill:#fff"/>
        <path data-name="Path 4" d="M37.8 26.52H5.948A1.452 1.452 0 0 1 4.5 25.073a1.452 1.452 0 0 1 1.448-1.448H37.8a1.452 1.452 0 0 1 1.448 1.448A1.452 1.452 0 0 1 37.8 26.52z" transform="translate(-4.5 -6.254)" style="fill:#fff"/>
    </g>
</svg>
