<svg xmlns="http://www.w3.org/2000/svg" width="22.5" height="31.5" viewBox="0 0 22.5 31.5">
    <path data-name="Icon material-touch-app" d="M13.5 16.86v-5.61a3.75 3.75 0 0 1 7.5 0v5.61a6.75 6.75 0 1 0-7.5 0zm14.76 6.945-6.81-3.39a2.112 2.112 0 0 0-.81-.165H19.5v-9a2.25 2.25 0 0 0-4.5 0v16.11l-5.145-1.08a2.622 2.622 0 0 0-.36-.045 1.678 1.678 0 0 0-1.185.5l-1.185 1.2 7.41 7.41a2.258 2.258 0 0 0 1.59.66H26.31a2.185 2.185 0 0 0 2.16-1.92l1.13-7.91a2.156 2.156 0 0 0-1.335-2.37z" transform="translate(-7.125 -4.5)" style="fill:#5758d4"/>
</svg>
