<svg xmlns="http://www.w3.org/2000/svg" width="348" height="355.104" viewBox="0 0 348 355.104">
    <path data-name="Icon material-center-focus-strong" d="M172.334 184.229c-4.063.283-3.784 4.286-2.891 7.219a3.572 3.572 0 0 0 5 2.093c.907-.558-.885-3.306 0-5.776s1.957-3.819-2.109-3.536zM38.667 236.736H0v78.912c0 21.7 17.4 39.456 38.667 39.456H116v-39.456H38.667zm0-197.28H116V0H38.667C17.4 0 0 17.755 0 39.456v78.912h38.667zM309.333 0H232v39.456h77.333v78.912H348V39.456C348 17.755 330.6 0 309.333 0zm0 315.648H232V355.1h77.333C330.6 355.1 348 337.345 348 315.644v-78.908h-38.667z"/>
</svg>
