<svg xmlns="http://www.w3.org/2000/svg" width="22.6" height="22.6" viewBox="0 0 22.6 22.6">
    <g data-name="Icon ionic-ios-switch">
        <path data-name="Path 7" d="M11.735 25.2a2.282 2.282 0 1 1-2.282-2.282 2.282 2.282 0 0 1 2.282 2.282z" transform="translate(-4.238 -7.819)" style="fill:#fff"/>
        <path data-name="Path 8" d="M20.732 19.125H8.617a5.215 5.215 0 1 0 0 10.431h12.115a5.215 5.215 0 1 0 0-10.431zM8.59 27.817a3.477 3.477 0 1 1 3.477-3.477 3.48 3.48 0 0 1-3.477 3.477z" transform="translate(-3.375 -6.956)" style="fill:#fff"/>
        <path data-name="Path 9" d="M27.485 9.454A2.282 2.282 0 1 1 25.2 7.172a2.282 2.282 0 0 1 2.282 2.282z" transform="translate(-7.819 -4.238)" style="fill:#fff"/>
        <path data-name="Path 10" d="M8.617 13.806h12.115a5.215 5.215 0 1 0 0-10.431H8.617a5.215 5.215 0 1 0 0 10.431zm12.142-8.693a3.477 3.477 0 1 1-3.477 3.477 3.48 3.48 0 0 1 3.477-3.477z" transform="translate(-3.375 -3.375)" style="fill:#fff"/>
    </g>
</svg>
